<?xml version="1.0" encoding="utf-8"?>
<!-- Generator: Adobe Illustrator 21.1.0, SVG Export Plug-In . SVG Version: 6.00 Build 0)  -->
<svg version="1.1" id="Layer_1" xmlns="http://www.w3.org/2000/svg" xmlns:xlink="http://www.w3.org/1999/xlink" x="0px" y="0px"
	 viewBox="0 0 800 600" enable-background="new 0 0 800 600" xml:space="preserve">
<g>
	<g>
		<g>
			<path fill="#01334C" d="M221.606,277.299c0-7.12,1.441-13.892,4.325-20.314c2.883-6.422,6.743-11.937,11.581-16.544
				c4.836-4.608,10.592-8.262,17.266-10.96c6.673-2.699,13.662-4.049,20.964-4.049c4.092,0,8.115,0.279,12.069,0.837
				c3.952,0.558,7.278,1.233,9.976,2.023c2.697,0.791,5.093,1.582,7.186,2.372c2.093,0.792,3.651,1.465,4.674,2.023l1.535,0.837
				l-6.139,15.215c-0.977-0.512-2.326-1.129-4.046-1.851c-1.721-0.722-4.896-1.698-9.523-2.932
				c-4.628-1.234-8.872-1.851-12.731-1.851c-11.627,0-20.871,3.294-27.73,9.881c-6.861,6.588-10.29,15.119-10.29,25.593
				c0,10.103,3.441,18.471,10.325,25.105c6.883,6.634,15.533,9.951,25.952,9.951c5.023,0,9.964-0.57,14.825-1.711
				c4.859-1.14,8.452-2.27,10.778-3.387l3.558-1.746l5.441,15.11c-0.373,0.232-0.884,0.533-1.535,0.903
				c-0.652,0.371-2.093,1.042-4.325,2.015s-4.559,1.829-6.976,2.57c-2.419,0.741-5.5,1.412-9.244,2.016
				c-3.744,0.601-7.523,0.902-11.336,0.902c-8.326,0-16.034-1.325-23.126-3.974c-7.093-2.648-13.07-6.273-17.929-10.876
				c-4.86-4.601-8.663-10.109-11.406-16.522C222.978,291.521,221.606,284.643,221.606,277.299z"/>
			<path fill="#01334C" d="M333.895,285.984v-58.879h17.719v58.879c0,18.092,7.953,27.138,23.859,27.138
				c16.277,0,24.417-9.093,24.417-27.277v-58.74h17.719v58.879c0,7.349-1.011,13.813-3.034,19.394s-4.907,10.115-8.65,13.604
				c-3.744,3.488-8.162,6.104-13.255,7.849s-10.825,2.616-17.196,2.616c-13.022,0-23.208-3.604-30.556-10.813
				C337.568,311.425,333.895,300.542,333.895,285.984z"/>
			<path fill="#01334C" d="M441.3,277.229c0-7.11,1.384-13.873,4.151-20.287c2.767-6.414,6.533-11.922,11.302-16.523
				c4.767-4.601,10.464-8.249,17.092-10.945c6.627-2.696,13.639-4.044,21.033-4.044c10.244,0,19.465,2.219,27.662,6.658
				c8.195,4.438,14.599,10.609,19.209,18.51c4.61,7.901,6.915,16.778,6.915,26.631c0,7.308-1.374,14.171-4.121,20.594
				c-2.748,6.422-6.485,11.926-11.212,16.51s-10.432,8.202-17.113,10.855c-6.684,2.652-13.797,3.979-21.34,3.979
				c-7.581,0-14.686-1.315-21.313-3.943c-6.628-2.63-12.302-6.236-17.022-10.821c-4.721-4.583-8.44-10.098-11.161-16.544
				C442.661,291.413,441.3,284.537,441.3,277.229z M460.415,277.508c0,6.598,1.522,12.649,4.569,18.156
				c3.046,5.506,7.221,9.85,12.522,13.032s11.138,4.774,17.511,4.774c9.767,0,17.964-3.45,24.591-10.35
				c6.628-6.9,9.941-15.438,9.941-25.613c0-6.784-1.465-12.928-4.396-18.434c-2.93-5.506-7.035-9.827-12.313-12.964
				c-5.279-3.136-11.221-4.705-17.824-4.705c-9.906,0-18.15,3.439-24.731,10.315C463.705,258.598,460.415,267.194,460.415,277.508z"
				/>
			<path fill="#01334C" d="M573.542,327.563V227.105h32.16c12.976,0,22.904,3.244,29.788,9.731
				c6.883,6.488,10.325,15.151,10.325,25.987c0,3.767-0.593,7.581-1.779,11.441c-1.186,3.861-3.244,7.698-6.174,11.511
				c-2.93,3.814-6.512,6.745-10.743,8.79c1.487,1.293,3.104,3.058,4.849,5.297s3.209,4.131,4.395,5.677
				c1.187,1.547,2.86,2.918,5.023,4.115c2.162,1.196,4.639,1.794,7.43,1.794h4.046v15.83c-2.512,0.563-5.721,0.843-9.627,0.843
				c-3.396,0-6.453-0.434-9.174-1.299s-4.966-2.024-6.732-3.477c-1.768-1.45-3.36-3.077-4.778-4.88
				c-1.42-1.803-2.687-3.71-3.803-5.724c-1.116-2.012-2.187-3.904-3.209-5.677c-1.023-1.771-2.221-3.462-3.593-5.073
				s-2.849-2.854-4.43-3.729c-1.163,0.094-2.907,0.14-5.232,0.14h-11.022v29.16H573.542z M591.261,282.706h13.116
				c7.813,0,13.486-1.814,17.021-5.442c3.534-3.627,5.302-8.441,5.302-14.44c0-12.929-7.441-19.394-22.323-19.394h-13.116V282.706z"
				/>
			<path fill="#01334C" d="M674.948,327.563v-57.275c0-15.114,3.571-26.37,10.716-33.765c7.144-7.395,17.396-11.092,30.758-11.092
				c13.407,0,23.764,3.709,31.071,11.127c7.307,7.419,10.96,18.662,10.96,33.73v57.275h-17.72v-23.998h-48.066v23.998H674.948z
				 M692.667,289.542c5.915-0.093,21.938-0.14,48.066-0.14v-18.947c0-19.133-8.012-28.701-24.033-28.701
				c-7.405,0-13.264,2.334-17.571,7.001s-6.462,11.854-6.462,21.56V289.542z"/>
		</g>
	</g>
	<g>
		<path fill="#7BCBD4" d="M142.727,375.567H93.576c-6.6,0-12-5.4-12-12v-10.29c0-6.6,5.4-12,12-12h49.151c6.6,0,12,5.4,12,12v10.29
			C154.727,370.167,149.327,375.567,142.727,375.567z"/>
		<path fill="#C3DCD9" d="M183.875,354.331H49c-6.6,0-12-5.4-12-12V240.122c0-6.6,5.4-12,12-12h134.875c6.6,0,12,5.4,12,12v102.209
			C195.875,348.931,190.475,354.331,183.875,354.331z"/>
		<path fill="#01334C" d="M167.542,322.367H66.818c-6.6,0-12-5.4-12-12v-36.094c0-6.6,5.4-12,12-12h100.724c6.6,0,12,5.4,12,12
			v36.094C179.542,316.967,174.142,322.367,167.542,322.367z"/>
		<circle fill="#FFFFFF" cx="74.66" cy="286.651" r="9.638"/>
		<circle fill="#FFFFFF" cx="161.967" cy="286.651" r="9.638"/>
		<path fill="none" stroke="#FFFFFF" stroke-width="6" stroke-miterlimit="10" d="M100.172,295.155c0,0,13.606,9.071,18.142,9.071
			c4.535,0,18.142-9.071,18.142-9.071"/>
		<path fill="#7BCBD4" d="M118.939,230.408h-2.717c-5.225,0-9.5-4.275-9.5-9.5v-14.147c0-5.225,4.275-9.5,9.5-9.5h2.717
			c5.225,0,9.5,4.275,9.5,9.5v14.147C128.439,226.133,124.164,230.408,118.939,230.408z"/>
		<circle fill="#C3E5E7" cx="117.009" cy="189.261" r="21.717"/>
		<g>
			<path fill="#FFFFFF" d="M110.707,177.245c2.077-1.062,4.006-1.593,5.788-1.593c1.22,0,2.321,0.178,3.304,0.535
				s1.779,0.84,2.389,1.452c0.61,0.611,1.076,1.301,1.398,2.071c0.322,0.77,0.483,1.584,0.483,2.445c0,0.783-0.125,1.506-0.376,2.17
				c-0.251,0.664-0.576,1.231-0.975,1.702s-0.838,0.919-1.316,1.345c-0.479,0.425-0.958,0.84-1.436,1.243
				c-0.479,0.403-0.911,0.82-1.297,1.251c-0.386,0.432-0.701,0.936-0.943,1.515c-0.243,0.579-0.364,1.208-0.364,1.889v0.783h-3.524
				v-1.294c0-0.794,0.106-1.529,0.319-2.204s0.484-1.251,0.815-1.728c0.331-0.477,0.701-0.924,1.109-1.345
				c0.409-0.419,0.818-0.811,1.227-1.174s0.781-0.726,1.116-1.089c0.335-0.363,0.61-0.771,0.826-1.226
				c0.215-0.454,0.324-0.937,0.324-1.447c0-0.987-0.339-1.733-1.017-2.239c-0.678-0.504-1.633-0.757-2.865-0.757
				c-0.726,0-1.441,0.1-2.145,0.298c-0.704,0.199-1.226,0.395-1.566,0.587l-0.51,0.289L110.707,177.245z M113.328,198.819
				c0-0.726,0.215-1.342,0.645-1.847c0.429-0.505,0.958-0.758,1.585-0.758c0.708,0,1.307,0.255,1.799,0.766
				c0.492,0.511,0.738,1.124,0.738,1.838c0,0.738-0.246,1.359-0.738,1.864c-0.492,0.505-1.091,0.758-1.799,0.758
				c-0.637,0-1.168-0.253-1.593-0.758C113.541,200.178,113.328,199.557,113.328,198.819z"/>
		</g>
	</g>
	<g>
		<g>
			<path fill="#7BCBD4" d="M235.432,372.139v-21.699h6.947c2.702,0,4.724,0.513,6.065,1.537c1.341,1.025,2.012,2.427,2.012,4.204
				c0,1.166-0.326,2.163-0.979,2.991c-0.653,0.829-1.592,1.46-2.818,1.892c1.467,0.421,2.564,1.051,3.293,1.888
				c0.728,0.837,1.092,1.848,1.092,3.031c0,1.257-0.379,2.356-1.138,3.297c-0.759,0.94-1.788,1.652-3.089,2.135
				c-1.301,0.483-2.78,0.725-4.438,0.725H235.432z M239.26,359.857h2.743c0.02,0,0.045,0,0.075,0c1.426,0,2.511-0.306,3.255-0.919
				c0.763-0.623,1.145-1.387,1.145-2.29c0-0.794-0.322-1.439-0.964-1.937c-0.643-0.497-1.627-0.746-2.954-0.746h-3.3V359.857z
				 M239.26,368.612h3.3c1.517,0,2.622-0.282,3.315-0.849c0.693-0.566,1.04-1.29,1.04-2.172c0-0.392-0.088-0.757-0.264-1.098
				s-0.457-0.656-0.844-0.947c-0.387-0.29-0.937-0.521-1.65-0.691c-0.713-0.17-1.552-0.255-2.517-0.255h-2.381V368.612z"/>
			<path fill="#7BCBD4" d="M272.591,355.316v-4.877h3.828v4.883c0,2.1,0.467,3.651,1.402,4.656c0.935,1.005,2.206,1.507,3.813,1.507
				c3.455,0,5.183-2.064,5.183-6.193v-4.853h3.827v4.877c0,2.881-0.617,5.111-1.849,6.691c-1.233,1.581-2.998,2.537-5.293,2.868
				v7.263h-3.827v-7.263c-2.296-0.312-4.05-1.26-5.263-2.846C273.198,360.445,272.591,358.207,272.591,355.316z"/>
			<path fill="#7BCBD4" d="M337.266,353.966v-3.526h18.263v3.526h-7.157v18.173h-3.828v-18.173H337.266z"/>
			<path fill="#7BCBD4" d="M377.214,372.139v-21.699h14.104v3.526h-10.276v6.072h9.313v3.391h-9.313v5.184h10.276v3.526H377.214z"/>
			<path fill="#7BCBD4" d="M412.202,372.139l10.187-21.88h0.858l10.187,21.88h-4.113l-1.914-4.34h-9.313l-1.883,4.34H412.202z
				 M419.45,364.771h6.601l-3.301-7.475L419.45,364.771z"/>
			<path fill="#7BCBD4" d="M454.877,372.139l0.603-21.789h1.703l9.011,15.807l8.789-15.807h1.674l0.612,21.789h-3.722l-0.105-12.462
				l-6.69,12.643h-1.326l-6.766-12.432l-0.061,12.251H454.877z"/>
			<path fill="#7BCBD4" d="M500.008,361.281c0-1.537,0.312-3,0.935-4.388c0.623-1.387,1.456-2.578,2.501-3.573
				s2.288-1.784,3.729-2.367s2.951-0.875,4.528-0.875c0.884,0,1.753,0.061,2.607,0.181c0.854,0.121,1.571,0.267,2.154,0.438
				s1.101,0.342,1.552,0.512c0.452,0.171,0.789,0.316,1.01,0.438l0.332,0.181l-1.326,3.286c-0.211-0.11-0.503-0.244-0.874-0.399
				c-0.372-0.156-1.058-0.367-2.057-0.634c-1-0.267-1.917-0.399-2.75-0.399c-2.512,0-4.509,0.711-5.99,2.134
				c-1.481,1.424-2.223,3.266-2.223,5.528c0,2.183,0.743,3.99,2.23,5.423c1.486,1.433,3.354,2.149,5.605,2.149
				c1.085,0,2.152-0.123,3.202-0.369c1.05-0.247,1.825-0.49,2.328-0.731l0.769-0.378l1.175,3.264
				c-0.08,0.051-0.19,0.115-0.331,0.195s-0.452,0.226-0.935,0.436s-0.984,0.395-1.507,0.555s-1.188,0.306-1.996,0.436
				c-0.81,0.13-1.625,0.195-2.449,0.195c-1.798,0-3.463-0.286-4.995-0.858s-2.823-1.355-3.873-2.35
				c-1.05-0.993-1.871-2.184-2.463-3.568C500.305,364.354,500.008,362.868,500.008,361.281z"/>
			<path fill="#7BCBD4" d="M542.125,372.139v-21.699h3.827v18.173h10.276v3.526H542.125z"/>
			<path fill="#7BCBD4" d="M577.883,372.139v-21.699h14.104v3.526H581.71v6.072h9.313v3.391h-9.313v5.184h10.276v3.526H577.883z"/>
			<path fill="#7BCBD4" d="M615.253,372.139l0.603-21.789h1.703l9.011,15.807l8.789-15.807h1.674l0.612,21.789h-3.722l-0.105-12.462
				l-6.69,12.643h-1.326l-6.766-12.432l-0.061,12.251H615.253z"/>
			<path fill="#7BCBD4" d="M661.8,372.139v-21.699h14.104v3.526h-10.276v6.072h9.313v3.391h-9.313v5.184h10.276v3.526H661.8z"/>
			<path fill="#7BCBD4" d="M699.472,372.139v-21.819h1.205l13.426,13.983v-13.863h3.828v21.85h-1.024l-13.607-13.606v13.456H699.472
				z"/>
			<path fill="#7BCBD4" d="M739.584,353.966v-3.526h18.264v3.526h-7.157v18.173h-3.828v-18.173H739.584z"/>
		</g>
	</g>
</g>
</svg>
